<svg xmlns="http://www.w3.org/2000/svg" width="1024" height="267" data-name="svg745"><path fill="#f2f0ef" fill-rule="evenodd" d="M782.863 7.557c-10.268 0-18.976 8.129-18.976 18.132v215.622c0 10.015 5.71 18.132 15.977 18.132h214.661c10.28 0 21.249-8.117 21.249-18.132V25.689c0-10.003-7.97-18.132-18.25-18.132zm35 31.485c12.426 0 22.49 10.064 22.49 22.49s-10.064 22.49-22.49 22.49-22.49-10.063-22.49-22.49 10.063-22.49 22.49-22.49m-659.68.89c-11.911 0-21.624 9.677-21.624 21.6s9.713 21.6 21.623 21.6c11.923 0 21.577-9.677 21.577-21.6s-9.654-21.6-21.577-21.6M8.225 43.54v179.92h107.952v-35.984H44.21V43.54zm335.85 0v179.92h35.983v-59.974l44.371 59.973h42.473l-50.86-65.572 47.979-54.374H422.04l-41.98 47.979V43.54zm347.843 0v74.264h-.351c-7.33-8.852-19.445-15.79-38.936-15.79-31.486 0-56.927 24.67-56.927 61.613 0 38.779 25.816 61.332 55.802 61.332 21.999 0 34.977-7.13 42.45-15.79h.352v14.29h33.594V43.54zm-418.171 58.474c-18.88 0-34.164 9.469-39.334 18.789h-.374v-17.29h-33.9V223.46h35.984v-57.607c0-18.028 8.619-32.353 26.707-32.353 14.897 0 21.271 12.284 21.271 29.94v60.02h35.984v-66.58c0-31.882-10.103-54.866-46.338-54.866m252.988 0c-40.986 0-62.715 23.981-62.715 58.802 0 39.198 23.985 64.143 61.66 64.143 28.235 0 45.718-9.828 54.21-20.827l-22.396-18.156c-4.846 6.585-15.587 14.994-31.228 14.994-17.92 0-25.726-12.643-28.089-22.982l-.187-3.702h85.321s.656-4.039.656-8.129c0-40.89-21.836-64.143-57.232-64.143m406.715 0c36.236 0 46.339 19.23 46.339 54.866v66.58h-35.984v-60.02c0-15.953-6.375-29.94-21.272-29.94-18.088 0-26.707 12.25-26.707 32.353v57.607h-35.983V103.513h33.898v17.29h.375c5.17-9.32 20.454-18.789 39.334-18.789m-793.284 1.5V223.46h35.984V103.513zm659.704 0h35.983V223.46H799.87zm-274.213 22.49c14.633 0 23.925 12.834 23.685 25.488H497.99c.971-11.887 10.25-25.489 27.667-25.489m136.017 2.998c20.595 0 32.634 13.717 32.634 34.18 0 19.911-12.04 34.789-32.634 34.789-20.57 0-32.118-15.274-32.118-34.789 0-19.503 11.547-34.18 32.118-34.18" data-name="path661"/></svg>
